<svg width="55" height="55" viewBox="0 0 55 55" fill="none" xmlns="http://www.w3.org/2000/svg">
<path d="M27.5 55C20.2065 55 13.2118 52.1027 8.05456 46.9454C2.89731 41.7882 0 34.7935 0 27.5C0 20.2065 2.89731 13.2118 8.05456 8.05456C13.2118 2.89731 20.2065 0 27.5 0C34.7935 0 41.7882 2.89731 46.9454 8.05456C52.1027 13.2118 55 20.2065 55 27.5C55 34.7935 52.1027 41.7882 46.9454 46.9454C41.7882 52.1027 34.7935 55 27.5 55V55ZM39.5312 29.2188C39.9871 29.2188 40.4243 29.0377 40.7466 28.7153C41.0689 28.393 41.25 27.9558 41.25 27.5C41.25 27.0442 41.0689 26.607 40.7466 26.2847C40.4243 25.9623 39.9871 25.7813 39.5312 25.7813L19.6178 25.7813L26.9981 18.4044C27.1579 18.2446 27.2847 18.0549 27.3712 17.8461C27.4577 17.6373 27.5022 17.4135 27.5022 17.1875C27.5022 16.9615 27.4577 16.7377 27.3712 16.5289C27.2847 16.3201 27.1579 16.1304 26.9981 15.9706C26.8383 15.8108 26.6486 15.6841 26.4398 15.5976C26.231 15.5111 26.0072 15.4666 25.7812 15.4666C25.5553 15.4666 25.3315 15.5111 25.1227 15.5976C24.9139 15.6841 24.7242 15.8108 24.5644 15.9706L14.2519 26.2831C14.0918 26.4428 13.9648 26.6325 13.8782 26.8413C13.7915 27.0501 13.7469 27.2739 13.7469 27.5C13.7469 27.7261 13.7915 27.9499 13.8782 28.1587C13.9648 28.3676 14.0918 28.5572 14.2519 28.7169L24.5644 39.0294C24.7242 39.1892 24.9139 39.3159 25.1227 39.4024C25.3315 39.4889 25.5553 39.5334 25.7812 39.5334C26.0072 39.5334 26.231 39.4889 26.4398 39.4024C26.6486 39.3159 26.8383 39.1892 26.9981 39.0294C27.1579 38.8696 27.2847 38.6799 27.3712 38.4711C27.4577 38.2623 27.5022 38.0385 27.5022 37.8125C27.5022 37.5865 27.4577 37.3627 27.3712 37.1539C27.2847 36.9451 27.1579 36.7554 26.9981 36.5956L19.6178 29.2188L39.5312 29.2188Z" fill="#1C6119"/>
</svg>
